<mxfile host="app.diagrams.net" modified="2020-12-04T02:07:14.098Z" agent="5.0 (Windows NT 10.0; Win64; x64) AppleWebKit/537.36 (KHTML, like Gecko) Chrome/86.0.4240.198 Safari/537.36" etag="jDjgn9_fNTosNMpETD4N" version="13.10.6" type="github">
  <diagram id="C5RBs43oDa-KdzZeNtuy" name="Page-1">
    <mxGraphModel dx="1422" dy="762" grid="1" gridSize="10" guides="1" tooltips="1" connect="1" arrows="1" fold="1" page="1" pageScale="1" pageWidth="827" pageHeight="1169" math="0" shadow="0">
      <root>
        <mxCell id="WIyWlLk6GJQsqaUBKTNV-0" />
        <mxCell id="WIyWlLk6GJQsqaUBKTNV-1" parent="WIyWlLk6GJQsqaUBKTNV-0" />
        <mxCell id="D0pM8Ozt61VsWx_AugoM-1" value="&lt;b&gt;RegisterAndRecognizeActivity&lt;/b&gt;&lt;p style=&quot;margin: 4px 0px 0px&quot;&gt;&lt;/p&gt;" style="html=1;" vertex="1" parent="WIyWlLk6GJQsqaUBKTNV-1">
          <mxGeometry x="334.5" y="210" width="220" height="70" as="geometry" />
        </mxCell>
        <mxCell id="D0pM8Ozt61VsWx_AugoM-2" value="CameraHelper" style="swimlane;fontStyle=1;align=center;verticalAlign=top;childLayout=stackLayout;horizontal=1;startSize=26;horizontalStack=0;resizeParent=1;resizeParentMax=0;resizeLast=0;collapsible=1;marginBottom=0;" vertex="1" parent="WIyWlLk6GJQsqaUBKTNV-1">
          <mxGeometry x="180" y="380" width="529" height="290" as="geometry" />
        </mxCell>
        <mxCell id="D0pM8Ozt61VsWx_AugoM-3" value="Camera mCamera" style="text;strokeColor=none;fillColor=none;align=left;verticalAlign=top;spacingLeft=4;spacingRight=4;overflow=hidden;rotatable=0;points=[[0,0.5],[1,0.5]];portConstraint=eastwest;" vertex="1" parent="D0pM8Ozt61VsWx_AugoM-2">
          <mxGeometry y="26" width="529" height="26" as="geometry" />
        </mxCell>
        <mxCell id="D0pM8Ozt61VsWx_AugoM-4" value="Point previewViewSize" style="text;strokeColor=none;fillColor=none;align=left;verticalAlign=top;spacingLeft=4;spacingRight=4;overflow=hidden;rotatable=0;points=[[0,0.5],[1,0.5]];portConstraint=eastwest;" vertex="1" parent="D0pM8Ozt61VsWx_AugoM-2">
          <mxGeometry y="52" width="529" height="26" as="geometry" />
        </mxCell>
        <mxCell id="D0pM8Ozt61VsWx_AugoM-5" value="FaceEngine flEngine" style="text;strokeColor=none;fillColor=none;align=left;verticalAlign=top;spacingLeft=4;spacingRight=4;overflow=hidden;rotatable=0;points=[[0,0.5],[1,0.5]];portConstraint=eastwest;" vertex="1" parent="D0pM8Ozt61VsWx_AugoM-2">
          <mxGeometry y="78" width="529" height="26" as="geometry" />
        </mxCell>
        <mxCell id="D0pM8Ozt61VsWx_AugoM-6" value="Camera.Size previewSize" style="text;strokeColor=none;fillColor=none;align=left;verticalAlign=top;spacingLeft=4;spacingRight=4;overflow=hidden;rotatable=0;points=[[0,0.5],[1,0.5]];portConstraint=eastwest;" vertex="1" parent="D0pM8Ozt61VsWx_AugoM-2">
          <mxGeometry y="104" width="529" height="26" as="geometry" />
        </mxCell>
        <mxCell id="D0pM8Ozt61VsWx_AugoM-10" value="" style="line;strokeWidth=1;fillColor=none;align=left;verticalAlign=middle;spacingTop=-1;spacingLeft=3;spacingRight=3;rotatable=0;labelPosition=right;points=[];portConstraint=eastwest;" vertex="1" parent="D0pM8Ozt61VsWx_AugoM-2">
          <mxGeometry y="130" width="529" height="8" as="geometry" />
        </mxCell>
        <mxCell id="D0pM8Ozt61VsWx_AugoM-11" value="void init()" style="text;strokeColor=none;fillColor=none;align=left;verticalAlign=top;spacingLeft=4;spacingRight=4;overflow=hidden;rotatable=0;points=[[0,0.5],[1,0.5]];portConstraint=eastwest;" vertex="1" parent="D0pM8Ozt61VsWx_AugoM-2">
          <mxGeometry y="138" width="529" height="26" as="geometry" />
        </mxCell>
        <mxCell id="D0pM8Ozt61VsWx_AugoM-12" value="void start()" style="text;strokeColor=none;fillColor=none;align=left;verticalAlign=top;spacingLeft=4;spacingRight=4;overflow=hidden;rotatable=0;points=[[0,0.5],[1,0.5]];portConstraint=eastwest;" vertex="1" parent="D0pM8Ozt61VsWx_AugoM-2">
          <mxGeometry y="164" width="529" height="26" as="geometry" />
        </mxCell>
        <mxCell id="D0pM8Ozt61VsWx_AugoM-13" value="int getCameraOri(int rotation)" style="text;strokeColor=none;fillColor=none;align=left;verticalAlign=top;spacingLeft=4;spacingRight=4;overflow=hidden;rotatable=0;points=[[0,0.5],[1,0.5]];portConstraint=eastwest;" vertex="1" parent="D0pM8Ozt61VsWx_AugoM-2">
          <mxGeometry y="190" width="529" height="26" as="geometry" />
        </mxCell>
        <mxCell id="D0pM8Ozt61VsWx_AugoM-14" value="void stop()" style="text;strokeColor=none;fillColor=none;align=left;verticalAlign=top;spacingLeft=4;spacingRight=4;overflow=hidden;rotatable=0;points=[[0,0.5],[1,0.5]];portConstraint=eastwest;" vertex="1" parent="D0pM8Ozt61VsWx_AugoM-2">
          <mxGeometry y="216" width="529" height="26" as="geometry" />
        </mxCell>
        <mxCell id="D0pM8Ozt61VsWx_AugoM-15" value="void release()" style="text;strokeColor=none;fillColor=none;align=left;verticalAlign=top;spacingLeft=4;spacingRight=4;overflow=hidden;rotatable=0;points=[[0,0.5],[1,0.5]];portConstraint=eastwest;" vertex="1" parent="D0pM8Ozt61VsWx_AugoM-2">
          <mxGeometry y="242" width="529" height="26" as="geometry" />
        </mxCell>
        <mxCell id="D0pM8Ozt61VsWx_AugoM-16" value="Camera.Size getBestSupportedSize(List&lt;Camera.Size&gt; sizes, Point previewViewSize)" style="text;strokeColor=none;fillColor=none;align=left;verticalAlign=top;spacingLeft=4;spacingRight=4;overflow=hidden;rotatable=0;points=[[0,0.5],[1,0.5]];portConstraint=eastwest;" vertex="1" parent="D0pM8Ozt61VsWx_AugoM-2">
          <mxGeometry y="268" width="529" height="22" as="geometry" />
        </mxCell>
        <mxCell id="D0pM8Ozt61VsWx_AugoM-17" value="相机辅助类" style="shape=note2;boundedLbl=1;whiteSpace=wrap;html=1;size=25;verticalAlign=top;align=center;" vertex="1" parent="WIyWlLk6GJQsqaUBKTNV-1">
          <mxGeometry x="180" y="280" width="120" height="60" as="geometry" />
        </mxCell>
        <mxCell id="D0pM8Ozt61VsWx_AugoM-18" value="1" style="endArrow=open;html=1;endSize=12;startArrow=diamondThin;startSize=14;startFill=1;edgeStyle=orthogonalEdgeStyle;align=left;verticalAlign=bottom;exitX=0.5;exitY=1;exitDx=0;exitDy=0;" edge="1" parent="WIyWlLk6GJQsqaUBKTNV-1" source="D0pM8Ozt61VsWx_AugoM-1" target="D0pM8Ozt61VsWx_AugoM-2">
          <mxGeometry x="-1" y="3" relative="1" as="geometry">
            <mxPoint x="531" y="260" as="sourcePoint" />
            <mxPoint x="691" y="260" as="targetPoint" />
          </mxGeometry>
        </mxCell>
        <mxCell id="D0pM8Ozt61VsWx_AugoM-19" value="" style="endArrow=none;dashed=1;html=1;entryX=0.5;entryY=1;entryDx=0;entryDy=0;entryPerimeter=0;exitX=0.113;exitY=-0.005;exitDx=0;exitDy=0;exitPerimeter=0;" edge="1" parent="WIyWlLk6GJQsqaUBKTNV-1" source="D0pM8Ozt61VsWx_AugoM-2" target="D0pM8Ozt61VsWx_AugoM-17">
          <mxGeometry width="50" height="50" relative="1" as="geometry">
            <mxPoint x="71" y="390" as="sourcePoint" />
            <mxPoint x="121" y="340" as="targetPoint" />
          </mxGeometry>
        </mxCell>
        <mxCell id="D0pM8Ozt61VsWx_AugoM-20" value="Builder" style="swimlane;fontStyle=0;childLayout=stackLayout;horizontal=1;startSize=26;fillColor=none;horizontalStack=0;resizeParent=1;resizeParentMax=0;resizeLast=0;collapsible=1;marginBottom=0;" vertex="1" parent="WIyWlLk6GJQsqaUBKTNV-1">
          <mxGeometry x="180" y="835" width="339" height="294" as="geometry" />
        </mxCell>
        <mxCell id="D0pM8Ozt61VsWx_AugoM-21" value="View previewDisplayView" style="text;strokeColor=none;fillColor=none;align=left;verticalAlign=top;spacingLeft=4;spacingRight=4;overflow=hidden;rotatable=0;points=[[0,0.5],[1,0.5]];portConstraint=eastwest;" vertex="1" parent="D0pM8Ozt61VsWx_AugoM-20">
          <mxGeometry y="26" width="339" height="26" as="geometry" />
        </mxCell>
        <mxCell id="D0pM8Ozt61VsWx_AugoM-22" value="boolean isMirror" style="text;strokeColor=none;fillColor=none;align=left;verticalAlign=top;spacingLeft=4;spacingRight=4;overflow=hidden;rotatable=0;points=[[0,0.5],[1,0.5]];portConstraint=eastwest;" vertex="1" parent="D0pM8Ozt61VsWx_AugoM-20">
          <mxGeometry y="52" width="339" height="26" as="geometry" />
        </mxCell>
        <mxCell id="D0pM8Ozt61VsWx_AugoM-23" value="Integer specificCameraId" style="text;strokeColor=none;fillColor=none;align=left;verticalAlign=top;spacingLeft=4;spacingRight=4;overflow=hidden;rotatable=0;points=[[0,0.5],[1,0.5]];portConstraint=eastwest;" vertex="1" parent="D0pM8Ozt61VsWx_AugoM-20">
          <mxGeometry y="78" width="339" height="26" as="geometry" />
        </mxCell>
        <mxCell id="D0pM8Ozt61VsWx_AugoM-24" value="CameraListener cameraListener" style="text;strokeColor=none;fillColor=none;align=left;verticalAlign=top;spacingLeft=4;spacingRight=4;overflow=hidden;rotatable=0;points=[[0,0.5],[1,0.5]];portConstraint=eastwest;" vertex="1" parent="D0pM8Ozt61VsWx_AugoM-20">
          <mxGeometry y="104" width="339" height="26" as="geometry" />
        </mxCell>
        <mxCell id="D0pM8Ozt61VsWx_AugoM-25" value="Point previewViewSize" style="text;strokeColor=none;fillColor=none;align=left;verticalAlign=top;spacingLeft=4;spacingRight=4;overflow=hidden;rotatable=0;points=[[0,0.5],[1,0.5]];portConstraint=eastwest;" vertex="1" parent="D0pM8Ozt61VsWx_AugoM-20">
          <mxGeometry y="130" width="339" height="26" as="geometry" />
        </mxCell>
        <mxCell id="D0pM8Ozt61VsWx_AugoM-26" value="int rotation" style="text;strokeColor=none;fillColor=none;align=left;verticalAlign=top;spacingLeft=4;spacingRight=4;overflow=hidden;rotatable=0;points=[[0,0.5],[1,0.5]];portConstraint=eastwest;" vertex="1" parent="D0pM8Ozt61VsWx_AugoM-20">
          <mxGeometry y="156" width="339" height="26" as="geometry" />
        </mxCell>
        <mxCell id="D0pM8Ozt61VsWx_AugoM-27" value="Point previewSize" style="text;strokeColor=none;fillColor=none;align=left;verticalAlign=top;spacingLeft=4;spacingRight=4;overflow=hidden;rotatable=0;points=[[0,0.5],[1,0.5]];portConstraint=eastwest;" vertex="1" parent="D0pM8Ozt61VsWx_AugoM-20">
          <mxGeometry y="182" width="339" height="26" as="geometry" />
        </mxCell>
        <mxCell id="D0pM8Ozt61VsWx_AugoM-28" value="int additionalRotation" style="text;strokeColor=none;fillColor=none;align=left;verticalAlign=top;spacingLeft=4;spacingRight=4;overflow=hidden;rotatable=0;points=[[0,0.5],[1,0.5]];portConstraint=eastwest;" vertex="1" parent="D0pM8Ozt61VsWx_AugoM-20">
          <mxGeometry y="208" width="339" height="26" as="geometry" />
        </mxCell>
        <mxCell id="D0pM8Ozt61VsWx_AugoM-29" value="" style="line;strokeWidth=1;fillColor=none;align=left;verticalAlign=middle;spacingTop=-1;spacingLeft=3;spacingRight=3;rotatable=0;labelPosition=right;points=[];portConstraint=eastwest;" vertex="1" parent="D0pM8Ozt61VsWx_AugoM-20">
          <mxGeometry y="234" width="339" height="8" as="geometry" />
        </mxCell>
        <mxCell id="D0pM8Ozt61VsWx_AugoM-30" value="Builder previewOn(View val)" style="text;strokeColor=none;fillColor=none;align=left;verticalAlign=top;spacingLeft=4;spacingRight=4;overflow=hidden;rotatable=0;points=[[0,0.5],[1,0.5]];portConstraint=eastwest;" vertex="1" parent="D0pM8Ozt61VsWx_AugoM-20">
          <mxGeometry y="242" width="339" height="26" as="geometry" />
        </mxCell>
        <mxCell id="D0pM8Ozt61VsWx_AugoM-35" value="CameraHelper build()" style="text;strokeColor=none;fillColor=none;align=left;verticalAlign=top;spacingLeft=4;spacingRight=4;overflow=hidden;rotatable=0;points=[[0,0.5],[1,0.5]];portConstraint=eastwest;" vertex="1" parent="D0pM8Ozt61VsWx_AugoM-20">
          <mxGeometry y="268" width="339" height="26" as="geometry" />
        </mxCell>
        <mxCell id="D0pM8Ozt61VsWx_AugoM-31" value="相机辅助类建造者" style="shape=note2;boundedLbl=1;whiteSpace=wrap;html=1;size=25;verticalAlign=top;align=center;" vertex="1" parent="WIyWlLk6GJQsqaUBKTNV-1">
          <mxGeometry x="180" y="740" width="120" height="60" as="geometry" />
        </mxCell>
        <mxCell id="D0pM8Ozt61VsWx_AugoM-32" value="" style="endArrow=none;dashed=1;html=1;entryX=0.5;entryY=1;entryDx=0;entryDy=0;entryPerimeter=0;" edge="1" parent="WIyWlLk6GJQsqaUBKTNV-1" target="D0pM8Ozt61VsWx_AugoM-31">
          <mxGeometry width="50" height="50" relative="1" as="geometry">
            <mxPoint x="240" y="835" as="sourcePoint" />
            <mxPoint x="270" y="815" as="targetPoint" />
          </mxGeometry>
        </mxCell>
        <mxCell id="D0pM8Ozt61VsWx_AugoM-33" value="1" style="endArrow=open;html=1;endSize=12;startArrow=diamondThin;startSize=14;startFill=1;edgeStyle=orthogonalEdgeStyle;align=left;verticalAlign=bottom;rounded=0;" edge="1" parent="WIyWlLk6GJQsqaUBKTNV-1" source="D0pM8Ozt61VsWx_AugoM-2" target="D0pM8Ozt61VsWx_AugoM-20">
          <mxGeometry x="-1" y="3" relative="1" as="geometry">
            <mxPoint x="420" y="730" as="sourcePoint" />
            <mxPoint x="580" y="730" as="targetPoint" />
          </mxGeometry>
        </mxCell>
      </root>
    </mxGraphModel>
  </diagram>
</mxfile>
